<?xml version="1.0"?>
<svg xmlns="http://www.w3.org/2000/svg" xmlns:xlink="http://www.w3.org/1999/xlink" version="1.1" id="Capa_1" x="0px" y="0px" viewBox="0 0 538.261 538.261" style="enable-background:new 0 0 538.261 538.261;" xml:space="preserve" width="512px" height="512px" class=""><g><g>
	<path d="M223.77,487.799c-2.1,0.421-3.78,2.944-2.94,5.046c0.84,4.205,0.42,8.831-2.1,12.615c-2.52,3.785-5.88,6.308-10.5,7.569   c-4.2,0.841-8.82,0.421-12.6-2.103c-3.78-2.523-6.3-5.887-7.56-10.513c-0.84-4.205-0.42-8.831,2.1-12.616   c2.52-3.785,5.88-6.308,10.5-7.569c2.52-0.421,5.04-0.421,7.56,0c2.1,0.421,4.62-0.841,5.04-3.364s-0.84-4.626-3.36-5.046   c-3.78-0.841-7.56-0.841-10.92,0c-6.72,1.682-12.18,5.467-15.54,11.354s-4.62,12.616-2.94,18.923   c1.68,6.728,5.46,12.195,11.34,15.559c4.2,2.523,8.4,3.785,13.02,3.785c2.1,0,3.78-0.42,5.88-0.841   c13.44-3.364,21.84-16.821,18.48-30.277C228.39,488.64,225.87,486.958,223.77,487.799z" data-original="#000000" class="active-path" data-old_color="#000000" fill="#00A189"/>
	<path d="M176.73,46.257h58.8c2.52,0,4.2-1.682,4.2-4.205s-1.68-4.205-4.2-4.205h-58.8c-2.52,0-4.2,1.682-4.2,4.205   S174.21,46.257,176.73,46.257z" data-original="#000000" class="active-path" data-old_color="#000000" fill="#00A189"/>
	<path d="M159.93,46.257c1.26,0,2.1-0.421,2.94-1.262c0.84-0.841,1.26-2.103,1.26-2.944c0-1.262-0.42-2.103-1.26-2.944   c-1.68-1.682-4.2-1.682-5.88,0c-0.84,0.841-1.26,2.103-1.26,2.944c0,1.262,0.42,2.103,1.26,2.944   C157.83,45.836,158.67,46.257,159.93,46.257z" data-original="#000000" class="active-path" data-old_color="#000000" fill="#00A189"/>
	<path d="M209.07,240.535c-1.68-1.682-4.2-1.682-5.88,0s-1.68,4.205,0,5.887l42,42.052c0.84,0.841,2.1,1.262,2.94,1.262   c0.84,0,2.1-0.421,2.94-1.262c1.68-1.682,1.68-4.205,0-5.887L209.07,240.535z" data-original="#000000" class="active-path" data-old_color="#000000" fill="#00A189"/>
	<path d="M479.13,147.181h-84l-0.42-117.324C394.71,13.457,381.27,0,364.89,0H46.95C30.57,0,17.13,13.457,17.13,29.857v478.548   c0,16.4,13.44,29.857,29.82,29.857h284.76c0,0,0,0,0.42,0l0,0h13.02h21l0,0h113.4c23.1,0,41.58-18.923,41.58-41.631V189.653   C521.13,166.104,502.23,147.181,479.13,147.181z M46.95,529.851c-11.76,0-21.42-9.672-21.42-21.446l0-478.548   c0-11.774,9.66-21.446,21.42-21.446h318.36c11.76,0,21.42,9.672,21.42,21.446v117.324h-8.4V75.693c0-2.523-1.68-4.205-4.2-4.205   h-16.8c-2.52,0-4.2,1.682-4.2,4.205c0,2.523,1.68,4.205,4.2,4.205h12.6v67.283h-38.22c-23.1,0-41.58,18.923-41.58,42.052v178.719   L167.07,244.74c-1.68-1.682-4.2-1.682-5.88,0c-1.68,1.682-1.68,4.205,0,5.887l128.94,129.099v74.431H42.33V85.785l139.86,140.032   c0.84,0.841,2.1,1.262,2.94,1.262c0.84,0,2.1-0.421,2.94-1.262c1.68-1.682,1.68-4.205,0-5.887L48.21,79.898h267.12   c2.52,0,4.2-1.682,4.2-4.205c0-2.523-1.68-4.205-4.2-4.205H39.39c-1.68-0.841-3.36-0.421-4.62,0.841   c-1.26,1.262-1.26,2.944-0.84,4.205v381.829c0,2.523,1.68,4.205,4.2,4.205h252v34.062c0,13.457,6.72,25.651,16.8,33.221H46.95z    M512.73,496.209c0,18.503-15.12,33.221-33.18,33.221h-134.4h-13.44c-18.48,0-33.18-15.139-33.18-33.221V189.232   c0-18.503,15.12-33.641,33.18-33.641h58.8l0,0h88.2c18.06,0,33.6,15.559,33.6,33.641L512.73,496.209z" data-original="#000000" class="active-path" data-old_color="#000000" fill="#00A189"/>
	<path d="M495.93,206.053h-12.6c-2.52,0-4.2,1.682-4.2,4.205c0,2.523,1.68,4.205,4.2,4.205h8.4v214.043l-12.6-12.615   c-1.68-1.682-4.2-1.682-5.88,0c-1.68,1.682-1.68,4.205,0,5.887l15.54,15.559c0.84,0.841,1.68,1.262,2.94,1.262v28.175h-172.2   V218.248l69.72,69.806c0.84,0.841,2.1,1.262,2.94,1.262s2.1-0.421,2.94-1.262c1.68-1.682,1.68-4.205,0-5.887l-67.62-67.703h126.42   c2.52,0,4.2-1.682,4.2-4.205c0-2.523-1.68-4.205-4.2-4.205h-138.6c-2.52,0-4.2,1.682-4.2,4.205v260.72   c0,2.523,1.68,4.205,4.2,4.205h180.6c2.52,0,4.2-1.682,4.2-4.205v-260.72C500.13,207.735,498.45,206.053,495.93,206.053z" data-original="#000000" class="active-path" data-old_color="#000000" fill="#00A189"/>
	<path d="M386.73,185.027h37.8c2.52,0,4.2-1.682,4.2-4.205c0-2.523-1.68-4.205-4.2-4.205h-37.8c-2.52,0-4.2,1.682-4.2,4.205   C382.53,183.345,384.21,185.027,386.73,185.027z" data-original="#000000" class="active-path" data-old_color="#000000" fill="#00A189"/>
	<path d="M365.73,185.448c1.26,0,2.1-0.421,2.94-1.262c0.84-0.841,1.26-1.682,1.26-2.944c0-1.262-0.42-2.103-1.26-2.944   c-1.68-1.682-4.2-1.682-5.88,0c-0.84,0.841-1.26,1.682-1.26,2.944c0,1.262,0.42,2.103,1.26,2.944   C363.63,185.027,364.47,185.448,365.73,185.448z" data-original="#000000" class="active-path" data-old_color="#000000" fill="#00A189"/>
	<path d="M437.97,335.151c1.26,0,2.1-0.421,2.94-1.262c1.68-1.682,1.68-4.205,0-5.887l-24.78-25.231c-1.68-1.682-4.2-1.682-5.88,0   c-1.68,1.682-1.68,4.205,0,5.887l24.78,24.81C435.87,334.731,436.71,335.151,437.97,335.151z" data-original="#000000" class="active-path" data-old_color="#000000" fill="#00A189"/>
	<path d="M365.73,308.238c-1.68,1.682-1.68,4.205,0,5.887l88.62,88.729c0.84,0.841,2.1,1.262,2.94,1.262   c0.84,0,2.1-0.421,2.94-1.262c1.68-1.682,1.68-4.205,0-5.887l-88.62-88.729C369.93,306.556,367.41,306.556,365.73,308.238z" data-original="#000000" class="active-path" data-old_color="#000000" fill="#00A189"/>
	<path d="M422.43,493.686c-2.1,0.841-3.36,2.944-2.94,5.046c0.42,1.262,0.42,2.523,0.42,4.205c0,7.99-6.3,14.718-14.7,14.718   c-7.98,0-14.7-6.308-14.7-14.718c0-8.41,6.72-14.718,14.7-14.718c1.68,0,2.94,0.421,4.2,0.841c2.1,0.841,4.62-0.421,5.46-2.944   c0.84-2.523-0.42-4.626-2.94-5.467c-2.1-0.841-4.62-0.841-6.72-0.841c-12.6,0-23.1,10.092-23.1,23.128   c0,13.036,10.08,23.128,23.1,23.128c12.6,0,23.1-10.092,23.1-23.128c0-2.103-0.42-4.205-0.84-6.308   C427.05,494.107,424.53,492.845,422.43,493.686z" data-original="#000000" class="active-path" data-old_color="#000000" fill="#00A189"/>
</g></g> </svg>
