<?xml version="1.0"?>
<svg xmlns="http://www.w3.org/2000/svg" height="512px" viewBox="0 -3 512.00004 512" width="512px" class=""><g><path d="m0 39.175781v414.785157c0 29.082031 23.574219 52.65625 52.644531 52.65625h340.398438v-496.949219c0-5.339844-4.328125-9.667969-9.671875-9.667969h-373.691406c-5.332032 0-9.6601568 4.328125-9.6679692 9.660156zm0 0" fill="#ffc14f" data-original="#FFC14F" class="" style="fill:#00A189" data-old_color="#ffc14f"/><path d="m71.632812 72.148438v433.363281c0 .371093 0 .746093.019532 1.105469h321.390625v-475.398438h-311.296875c-5.566406 0-10.082032 4.527344-10.082032 10.09375zm0 0" fill="#ffb52d" data-original="#FFB52D" class="" style="fill:#FFFFFF" data-old_color="#ffb52d"/><path d="m444.03125 71.789062v384.144532c0 27.863281-22.800781 50.664062-50.660156 50.664062h-340.550782l5.226563-.382812c24.980469-3.066406 44.472656-24.515625 44.472656-50.28125v-384.144532c0-5.320312 4.296875-9.640624 9.617188-9.671874h43.667969l278.566406.011718c5.332031 0 9.660156 4.316406 9.660156 9.660156zm0 0" fill="#ffe1aa" data-original="#FFE1AA" class="" style="fill:#1F5B62" data-old_color="#ffe1aa"/><path d="m444.03125 71.789062v384.144532c0 27.863281-22.800781 50.664062-50.660156 50.664062h-296.882813l5.226563-.382812c24.980468-3.066406 44.472656-24.515625 44.472656-50.28125v-384.144532c0-5.300781 4.257812-9.597656 9.546875-9.671874h.070313l278.566406.011718c5.332031 0 9.660156 4.316406 9.660156 9.660156zm0 0" fill="#ffe7c0" data-original="#FFE7C0" class="" style="fill:#1F5B62" data-old_color="#ffe7c0"/><g fill="#2476ed"><path d="m336.167969 364.066406h-198.347657c-4.28125 0-7.75-3.46875-7.75-7.746094 0-4.28125 3.46875-7.75 7.75-7.75h198.347657c4.28125 0 7.75 3.46875 7.75 7.75 0 4.277344-3.46875 7.746094-7.75 7.746094zm0 0" data-original="#2476ED" class="" style="fill:#FFFFFF" data-old_color="#2476ED"/><path d="m307.648438 401.210938h-169.828126c-4.28125 0-7.75-3.46875-7.75-7.75 0-4.277344 3.46875-7.746094 7.75-7.746094h169.828126c4.28125 0 7.746093 3.46875 7.746093 7.746094 0 4.28125-3.464843 7.75-7.746093 7.75zm0 0" data-original="#2476ED" class="" style="fill:#FFFFFF" data-old_color="#2476ED"/><path d="m298.636719 438.355469h-160.816407c-4.28125 0-7.75-3.46875-7.75-7.75 0-4.277344 3.46875-7.746094 7.75-7.746094h160.816407c4.277343 0 7.746093 3.46875 7.746093 7.746094 0 4.28125-3.46875 7.75-7.746093 7.75zm0 0" data-original="#2476ED" class="" style="fill:#FFFFFF" data-old_color="#2476ED"/><path d="m285.550781 475.496094h-147.730469c-4.28125 0-7.75-3.46875-7.75-7.746094 0-4.28125 3.46875-7.75 7.75-7.75h147.730469c4.277344 0 7.746094 3.46875 7.746094 7.75 0 4.277344-3.46875 7.746094-7.746094 7.746094zm0 0" data-original="#2476ED" class="" style="fill:#FFFFFF" data-old_color="#2476ED"/></g><path d="m216.75 252.851562v69.25h-40.503906c-1.972656 0-3.570313-1.597656-3.570313-3.566406v-65.683594c0-3.195312 2.585938-5.785156 5.78125-5.785156h32.511719c3.191406 0 5.78125 2.589844 5.78125 5.785156zm0 0" fill="#0a66ea" data-original="#0A66EA" class=""/><path d="m260.828125 217.015625v105.085937h-44.078125v-105.085937c0-3.195313 2.589844-5.785156 5.785156-5.785156h32.511719c3.191406 0 5.78125 2.589843 5.78125 5.785156zm0 0" fill="#1ed688" data-original="#1ED688" class="active-path" style="fill:#00A189" data-old_color="#1ed688"/><path d="m304.910156 181.308594v140.796875l-30.734375-.003907h-13.347656v-140.792968c0-2.550782 2.335937-4.617188 5.210937-4.617188h33.660157c2.875 0 5.210937 2.066406 5.210937 4.617188zm0 0" fill="#f44545" data-original="#F44545" class=""/><path d="m348.984375 144.144531v177.960938h-44.074219v-177.960938c0-2.542969 2.332032-4.609375 5.203125-4.609375h33.664063c2.878906 0 5.207031 2.0625 5.207031 4.609375zm0 0" fill="#ffa90b" data-original="#FFA90B" class=""/><path d="m393.0625 106.988281v215.117188h-44.078125v-215.117188c0-2.546875 2.332031-4.613281 5.210937-4.613281h33.65625c2.878907 0 5.210938 2.066406 5.210938 4.613281zm0 0" fill="#5596fb" data-original="#5596FB" class=""/><path d="m441.191406 356.046875c.414063 2.148437 1.746094 4.132813 3.980469 5.300781 24.84375 12.882813 41.921875 38.863282 41.921875 68.636719v34.554687c0 13.546876-11.085938 24.628907-24.628906 24.628907h-105.269532c-13.542968 0-24.628906-11.082031-24.628906-24.628907v-34.554687c0-29.773437 17.066406-55.753906 41.910156-68.636719 2.128907-1.105468 3.441407-2.964844 3.917969-5 .753907-3.203125-.550781-6.808594-3.917969-8.554687-.441406-.226563-.886718-.464844-1.332031-.722657-24.121093-13.089843-40.578125-38.667968-40.578125-67.914062v-34.546875c0-13.554687 11.085938-24.636719 24.628906-24.636719h105.269532c13.542968 0 24.628906 11.082032 24.628906 24.636719v34.546875c0 29.785156-17.078125 55.753906-41.921875 68.636719-.394531.207031-.753906.425781-1.085937.671875-2.457032 1.839844-3.429688 4.835937-2.894532 7.582031zm0 0" fill="#d2d2d7" data-original="#D2D2D7" class=""/><path d="m441.191406 356.046875c.414063 2.148437 1.746094 4.132813 3.980469 5.300781 24.84375 12.882813 41.921875 38.863282 41.921875 68.636719v34.554687c0 13.546876-11.085938 24.628907-24.628906 24.628907h-74.277344c-13.542969 0-24.628906-11.082031-24.628906-24.628907v-34.554687c0-29.773437 17.066406-55.753906 41.910156-68.636719 2.128906-1.105468 3.441406-2.964844 3.917969-5 .753906-3.203125-.550781-6.808594-3.917969-8.554687-.441406-.226563-.886719-.464844-1.332031-.722657-24.121094-13.089843-40.578125-38.667968-40.578125-67.914062v-34.546875c0-13.554687 11.085937-24.636719 24.628906-24.636719h74.277344c13.542968 0 24.628906 11.082032 24.628906 24.636719v34.546875c0 29.785156-17.078125 55.753906-41.921875 68.636719-.394531.207031-.753906.425781-1.085937.671875-2.457032 1.839844-3.429688 4.835937-2.894532 7.582031zm0 0" fill="#ebebf0" data-original="#EBEBF0" class=""/><path d="m485.882812 292.761719c-4.296874 23.945312-19.742187 44.152343-40.710937 55.03125-.394531.207031-.753906.425781-1.085937.671875l-30.175782 16.105468c-1.230468.652344-2.59375.992188-3.976562.992188-1.394532 0-2.757813-.339844-3.976563-.992188l-32.8125-17.5c-20.300781-11.011718-35.164062-30.867187-39.371093-54.308593zm0 0" fill="#35e298" data-original="#35E298" class="" style="fill:#00A189" data-old_color="#35e298"/><path d="m409.476562 389.675781c-4.277343 0-7.746093-3.46875-7.746093-7.75v-29.785156c0-4.28125 3.46875-7.75 7.746093-7.75 4.28125 0 7.75 3.46875 7.75 7.75v29.785156c0 4.28125-3.46875 7.75-7.75 7.75zm0 0" fill="#35e298" data-original="#35E298" class="" style="fill:#00A189" data-old_color="#35e298"/><path d="m475.015625 468.1875h-135.144531c6.722656-7.699219 14.976562-15.664062 23.6875-22.519531 7.105468-5.601563 15.339844-11.148438 24.472656-15.703125 13.101562-6.539063 28.535156-6.476563 41.5.320312 13.78125 7.21875 32.085938 19.398438 45.484375 37.902344zm0 0" fill="#35e298" data-original="#35E298" class="" style="fill:#00A189" data-old_color="#35e298"/><path d="m409.386719 356.347656c-.476563 2.035156-1.789063 3.894532-3.917969 5-.917969.476563-1.835938.972656-2.738281 1.507813l-29.585938-15.785157c-20.300781-11.011718-35.164062-30.867187-39.371093-54.308593h30.992187c4.207031 23.441406 19.070313 43.296875 39.371094 54.308593.445312.257813.890625.496094 1.332031.722657 3.367188 1.746093 4.671875 5.351562 3.917969 8.554687zm0 0" fill="#1ed688" data-original="#1ED688" class="active-path" style="fill:#00A189" data-old_color="#1ed688"/><path d="m363.828125 468.1875h-23.957031c6.722656-7.699219 14.976562-15.664062 23.6875-22.519531v18.871093c0 1.242188.09375 2.449219.269531 3.648438zm0 0" fill="#1ed688" data-original="#1ED688" class="active-path" style="fill:#00A189" data-old_color="#1ed688"/><path d="m512 223.113281c0 5.710938-2.34375 10.917969-6.105469 14.6875-3.78125 3.773438-8.976562 6.105469-14.699219 6.105469h-162.742187c-11.445313 0-20.804687-9.359375-20.804687-20.792969 0-5.722656 2.335937-10.921875 6.117187-14.703125 3.757813-3.757812 8.964844-6.105468 14.6875-6.105468h162.742187c11.445313 0 20.804688 9.359374 20.804688 20.808593zm0 0" fill="#ae583e" data-original="#AE583E" class="" style="fill:#F2AF42" data-old_color="#ae583e"/><path d="m512 223.113281h-158.628906c-11.445313 0-20.804688-9.371093-20.804688-20.808593h158.628906c11.445313 0 20.804688 9.359374 20.804688 20.808593zm0 0" fill="#c0694e" data-original="#C0694E" class="" style="fill:#F2AF42" data-old_color="#c0694e"/><path d="m512 486.039062c0 5.722657-2.34375 10.917969-6.105469 14.691407-3.78125 3.769531-8.976562 6.113281-14.699219 6.113281h-162.742187c-11.445313 0-20.804687-9.367188-20.804687-20.804688 0-5.722656 2.335937-10.929687 6.117187-14.691406 3.757813-3.78125 8.964844-6.113281 14.6875-6.113281h162.742187c9.132813 0 16.929688 5.949219 19.710938 14.171875.710938 2.085938 1.09375 4.320312 1.09375 6.632812zm0 0" fill="#ae583e" data-original="#AE583E" class="" style="fill:#F2AF42" data-old_color="#ae583e"/><path d="m512 486.039062c0 5.722657-2.34375 10.917969-6.105469 14.691407-3.78125 3.769531-8.976562 6.113281-14.699219 6.113281h-157.535156c-.710937-2.085938-1.09375-4.316406-1.09375-6.632812 0-5.722657 2.335938-10.917969 6.117188-14.6875 3.757812-3.773438 8.964844-6.117188 14.6875-6.117188h157.535156c.710938 2.085938 1.09375 4.320312 1.09375 6.632812zm0 0" fill="#c0694e" data-original="#C0694E" class="" style="fill:#F2AF42" data-old_color="#c0694e"/></g> </svg>
