<?xml version="1.0"?>
<svg xmlns="http://www.w3.org/2000/svg" xmlns:xlink="http://www.w3.org/1999/xlink" version="1.1" id="Capa_1" x="0px" y="0px" viewBox="0 0 481.711 481.711" style="enable-background:new 0 0 481.711 481.711;" xml:space="preserve" width="512px" height="512px" class=""><g><g>
	<g>
		<path d="M151.095,160.172c4.618,0,8.358-3.74,8.358-8.358v-49.436c0-4.617-3.74-8.358-8.358-8.358H92.941    c-4.618,0-8.358,3.742-8.358,8.358v49.436c0,4.618,3.74,8.358,8.358,8.358H151.095z" data-original="#020202" class="active-path" data-old_color="#020202" fill="#00A189"/>
		<path d="M205.102,229.796v115.759c0,4.618,3.74,8.358,8.358,8.358h15.375V221.438H213.46    C208.841,221.438,205.102,225.178,205.102,229.796z" data-original="#020202" class="active-path" data-old_color="#020202" fill="#00A189"/>
		<path d="M182.277,86.956c-4.437,0-8.029,3.59-8.029,8.029c0,4.438,3.592,8.029,8.029,8.029h67.123    c7.197-6.727,15.949-11.668,25.631-14.545c-1.286-0.877-2.76-1.513-4.438-1.513H182.277z" data-original="#020202" class="active-path" data-old_color="#020202" fill="#00A189"/>
		<path d="M237.053,119.072h-54.775c-4.437,0-8.029,3.59-8.029,8.029c0,4.438,3.592,8.029,8.029,8.029h48.431    C232.066,129.412,234.285,124.089,237.053,119.072z" data-original="#020202" class="active-path" data-old_color="#020202" fill="#00A189"/>
		<path d="M228.835,151.186h-46.557c-4.437,0-8.029,3.591-8.029,8.029c0,4.438,3.592,8.029,8.029,8.029    h46.557V151.186z" data-original="#020202" class="active-path" data-old_color="#020202" fill="#00A189"/>
		<path d="M174.249,215.417H85.932c-4.437,0-8.029,3.59-8.029,8.029c0,4.439,3.592,8.029,8.029,8.029h88.316    c4.439,0,8.029-3.59,8.029-8.029C182.277,219.007,178.687,215.417,174.249,215.417z" data-original="#020202" class="active-path" data-old_color="#020202" fill="#00A189"/>
		<path d="M174.249,247.532H85.932c-4.437,0-8.029,3.59-8.029,8.029c0,4.438,3.592,8.029,8.029,8.029h88.316    c4.439,0,8.029-3.591,8.029-8.029C182.277,251.122,178.687,247.532,174.249,247.532z" data-original="#020202" class="active-path" data-old_color="#020202" fill="#00A189"/>
		<path d="M174.249,279.647H85.932c-4.437,0-8.029,3.59-8.029,8.029c0,4.438,3.592,8.028,8.029,8.028h88.316    c4.439,0,8.029-3.59,8.029-8.028C182.277,283.238,178.687,279.647,174.249,279.647z" data-original="#020202" class="active-path" data-old_color="#020202" fill="#00A189"/>
		<path d="M174.249,311.762H85.932c-4.437,0-8.029,3.591-8.029,8.029c0,4.439,3.592,8.029,8.029,8.029h88.316    c4.439,0,8.029-3.59,8.029-8.029C182.277,315.353,178.687,311.762,174.249,311.762z" data-original="#020202" class="active-path" data-old_color="#020202" fill="#00A189"/>
		<path d="M174.249,343.877H85.932c-4.437,0-8.029,3.591-8.029,8.029c0,4.439,3.592,8.029,8.029,8.029h88.316    c4.439,0,8.029-3.59,8.029-8.029C182.277,347.468,178.687,343.877,174.249,343.877z" data-original="#020202" class="active-path" data-old_color="#020202" fill="#00A189"/>
		<path d="M228.835,183.302H84.583c-4.437,0-8.029,3.591-8.029,8.029c0,4.438,3.592,8.029,8.029,8.029    h144.251V183.302z" data-original="#020202" class="active-path" data-old_color="#020202" fill="#00A189"/>
	</g>
	<g>
		<path d="M228.835,445.923v-47.868H48.172V63.082c0-6.875,5.59-12.467,12.466-12.467h237.907    c6.877,0,12.467,5.591,12.467,12.467v22.463h48.173V63.082c0-33.44-27.198-60.64-60.64-60.64H60.638    C27.198,2.442,0,29.642,0,63.082V418.63c0,33.44,27.198,60.638,60.638,60.638h177.786c-3.223-5.276-5.668-11.023-7.268-17.146    C229.792,456.916,228.835,451.553,228.835,445.923z M179.596,460.515c-12.607,0-22.831-10.218-22.831-22.832    c0-12.601,10.224-22.824,22.831-22.824c12.592,0,22.816,10.224,22.816,22.824C202.412,450.297,192.188,460.515,179.596,460.515z" data-original="#020202" class="active-path" data-old_color="#020202" fill="#00A189"/>
		<path d="M449.47,118.766H293.19c-17.774,0-32.24,14.464-32.24,32.24v296.022    c0,17.775,14.466,32.24,32.24,32.24h156.28c17.774,0,32.24-14.465,32.24-32.24V151.007    C481.711,133.231,467.245,118.766,449.47,118.766z M371.315,463.219c-9.394,0-17.015-7.637-17.015-17.037    c0-9.402,7.621-17.023,17.015-17.023c9.424,0,17.045,7.621,17.045,17.023C388.36,455.582,380.739,463.219,371.315,463.219z     M449.525,414.89H293.081l0.109-264.009l156.406,0.125L449.525,414.89z" data-original="#020202" class="active-path" data-old_color="#020202" fill="#00A189"/>
	</g>
</g></g> </svg>
